<?xml version="1.0" encoding="utf-8"?>
<!-- Generator: Adobe Illustrator 16.0.0, SVG Export Plug-In . SVG Version: 6.00 Build 0)  -->
<!DOCTYPE svg PUBLIC "-//W3C//DTD SVG 1.1//EN" "http://www.w3.org/Graphics/SVG/1.1/DTD/svg11.dtd">
<svg version="1.1" id="Capa_1" xmlns="http://www.w3.org/2000/svg" xmlns:xlink="http://www.w3.org/1999/xlink" x="0px" y="0px"
	 width="36px" height="29.25px" viewBox="7 5.375 36 29.25" enable-background="new 7 5.375 36 29.25" xml:space="preserve">
<path fill="#FFFFFF" d="M7,8.75c0-1.864,1.511-3.375,3.375-3.375h29.25C41.49,5.375,43,6.886,43,8.75s-1.51,3.375-3.375,3.375
	h-29.25C8.511,12.125,7,10.614,7,8.75z M39.625,16.625h-29.25C8.511,16.625,7,18.136,7,20s1.511,3.375,3.375,3.375h29.25
	C41.489,23.375,43,21.864,43,20S41.489,16.625,39.625,16.625z M39.625,27.875h-29.25C8.511,27.875,7,29.386,7,31.25
	s1.511,3.375,3.375,3.375h29.25c1.865,0,3.375-1.511,3.375-3.375S41.489,27.875,39.625,27.875z"/>
</svg>
